<mxfile host="app.diagrams.net" agent="Mozilla/5.0 (Windows NT 10.0; Win64; x64) AppleWebKit/537.36 (KHTML, like Gecko) Chrome/127.0.0.0 Safari/537.36" version="24.7.7">
  <diagram name="PÃ¡gina-1" id="026LV-ecqqNy7AiQYLed">
    <mxGraphModel dx="880" dy="460" grid="1" gridSize="10" guides="1" tooltips="1" connect="1" arrows="1" fold="1" page="1" pageScale="1" pageWidth="3300" pageHeight="4681" math="0" shadow="0">
      <root>
        <mxCell id="0" />
        <mxCell id="1" parent="0" />
        <mxCell id="ZSZtkPEoFd3dV9tq5ufR-3" value="" style="endArrow=classic;html=1;rounded=0;exitX=0.5;exitY=1;exitDx=0;exitDy=0;" edge="1" parent="1">
          <mxGeometry width="50" height="50" relative="1" as="geometry">
            <mxPoint x="410" y="270" as="sourcePoint" />
            <mxPoint x="410" y="310" as="targetPoint" />
          </mxGeometry>
        </mxCell>
        <mxCell id="ZSZtkPEoFd3dV9tq5ufR-6" value="" style="endArrow=classic;html=1;rounded=0;" edge="1" parent="1">
          <mxGeometry width="50" height="50" relative="1" as="geometry">
            <mxPoint x="410" y="370" as="sourcePoint" />
            <mxPoint x="410" y="450" as="targetPoint" />
            <Array as="points">
              <mxPoint x="410" y="370" />
            </Array>
          </mxGeometry>
        </mxCell>
        <mxCell id="ZSZtkPEoFd3dV9tq5ufR-7" value="si" style="endArrow=classic;html=1;rounded=0;exitX=0.5;exitY=1;exitDx=0;exitDy=0;" edge="1" parent="1" source="ZSZtkPEoFd3dV9tq5ufR-11">
          <mxGeometry width="50" height="50" relative="1" as="geometry">
            <mxPoint x="420" y="520" as="sourcePoint" />
            <mxPoint x="410" y="580" as="targetPoint" />
          </mxGeometry>
        </mxCell>
        <mxCell id="ZSZtkPEoFd3dV9tq5ufR-9" value="inicio" style="ellipse;whiteSpace=wrap;html=1;" vertex="1" parent="1">
          <mxGeometry x="350" y="190" width="120" height="80" as="geometry" />
        </mxCell>
        <mxCell id="ZSZtkPEoFd3dV9tq5ufR-10" value="solicitar monto_compra" style="shape=parallelogram;perimeter=parallelogramPerimeter;whiteSpace=wrap;html=1;fixedSize=1;" vertex="1" parent="1">
          <mxGeometry x="350" y="320" width="120" height="60" as="geometry" />
        </mxCell>
        <mxCell id="ZSZtkPEoFd3dV9tq5ufR-11" value="monto_compra &amp;lt;500" style="rhombus;whiteSpace=wrap;html=1;" vertex="1" parent="1">
          <mxGeometry x="370" y="450" width="80" height="80" as="geometry" />
        </mxCell>
        <mxCell id="ZSZtkPEoFd3dV9tq5ufR-13" value="descuento = 0" style="rounded=1;whiteSpace=wrap;html=1;" vertex="1" parent="1">
          <mxGeometry x="354" y="585" width="120" height="60" as="geometry" />
        </mxCell>
        <mxCell id="ZSZtkPEoFd3dV9tq5ufR-18" value="500 &amp;lt;= monto compra &amp;lt; 1000" style="rhombus;whiteSpace=wrap;html=1;" vertex="1" parent="1">
          <mxGeometry x="374" y="700" width="80" height="80" as="geometry" />
        </mxCell>
        <mxCell id="ZSZtkPEoFd3dV9tq5ufR-19" value="" style="endArrow=classic;html=1;rounded=0;exitX=0.45;exitY=1.017;exitDx=0;exitDy=0;exitPerimeter=0;entryX=0.5;entryY=0;entryDx=0;entryDy=0;" edge="1" parent="1" source="ZSZtkPEoFd3dV9tq5ufR-13" target="ZSZtkPEoFd3dV9tq5ufR-18">
          <mxGeometry width="50" height="50" relative="1" as="geometry">
            <mxPoint x="390" y="650" as="sourcePoint" />
            <mxPoint x="440" y="600" as="targetPoint" />
          </mxGeometry>
        </mxCell>
        <mxCell id="ZSZtkPEoFd3dV9tq5ufR-20" value="si" style="endArrow=classic;html=1;rounded=0;exitX=0.5;exitY=1;exitDx=0;exitDy=0;" edge="1" parent="1" source="ZSZtkPEoFd3dV9tq5ufR-18" target="ZSZtkPEoFd3dV9tq5ufR-21">
          <mxGeometry width="50" height="50" relative="1" as="geometry">
            <mxPoint x="390" y="880" as="sourcePoint" />
            <mxPoint x="414" y="830" as="targetPoint" />
          </mxGeometry>
        </mxCell>
        <mxCell id="ZSZtkPEoFd3dV9tq5ufR-21" value="descuento = 5" style="rounded=1;whiteSpace=wrap;html=1;" vertex="1" parent="1">
          <mxGeometry x="354" y="840" width="120" height="60" as="geometry" />
        </mxCell>
        <mxCell id="ZSZtkPEoFd3dV9tq5ufR-22" value="" style="endArrow=classic;html=1;rounded=0;exitX=0.5;exitY=1;exitDx=0;exitDy=0;" edge="1" parent="1" source="ZSZtkPEoFd3dV9tq5ufR-21" target="ZSZtkPEoFd3dV9tq5ufR-23">
          <mxGeometry width="50" height="50" relative="1" as="geometry">
            <mxPoint x="390" y="880" as="sourcePoint" />
            <mxPoint x="414" y="970" as="targetPoint" />
          </mxGeometry>
        </mxCell>
        <mxCell id="ZSZtkPEoFd3dV9tq5ufR-23" value="1000 &amp;lt;= monto_compra &amp;lt; 7000" style="rhombus;whiteSpace=wrap;html=1;" vertex="1" parent="1">
          <mxGeometry x="374" y="930" width="80" height="80" as="geometry" />
        </mxCell>
        <mxCell id="ZSZtkPEoFd3dV9tq5ufR-24" value="si" style="endArrow=classic;html=1;rounded=0;exitX=0.5;exitY=1;exitDx=0;exitDy=0;" edge="1" parent="1" source="ZSZtkPEoFd3dV9tq5ufR-23" target="ZSZtkPEoFd3dV9tq5ufR-25">
          <mxGeometry width="50" height="50" relative="1" as="geometry">
            <mxPoint x="390" y="880" as="sourcePoint" />
            <mxPoint x="414" y="1070" as="targetPoint" />
          </mxGeometry>
        </mxCell>
        <mxCell id="ZSZtkPEoFd3dV9tq5ufR-25" value="descuento = 11" style="rounded=1;whiteSpace=wrap;html=1;" vertex="1" parent="1">
          <mxGeometry x="354" y="1040" width="120" height="60" as="geometry" />
        </mxCell>
        <mxCell id="ZSZtkPEoFd3dV9tq5ufR-27" value="" style="endArrow=classic;html=1;rounded=0;exitX=0.5;exitY=1;exitDx=0;exitDy=0;" edge="1" parent="1" source="ZSZtkPEoFd3dV9tq5ufR-25" target="ZSZtkPEoFd3dV9tq5ufR-28">
          <mxGeometry width="50" height="50" relative="1" as="geometry">
            <mxPoint x="390" y="1250" as="sourcePoint" />
            <mxPoint x="414" y="1160" as="targetPoint" />
          </mxGeometry>
        </mxCell>
        <mxCell id="ZSZtkPEoFd3dV9tq5ufR-28" value="7000 &amp;lt;= monto_compra &amp;lt;15000" style="rhombus;whiteSpace=wrap;html=1;" vertex="1" parent="1">
          <mxGeometry x="374" y="1140" width="80" height="80" as="geometry" />
        </mxCell>
        <mxCell id="ZSZtkPEoFd3dV9tq5ufR-29" value="si" style="endArrow=classic;html=1;rounded=0;exitX=0.5;exitY=1;exitDx=0;exitDy=0;" edge="1" parent="1" source="ZSZtkPEoFd3dV9tq5ufR-28" target="ZSZtkPEoFd3dV9tq5ufR-30">
          <mxGeometry width="50" height="50" relative="1" as="geometry">
            <mxPoint x="390" y="1250" as="sourcePoint" />
            <mxPoint x="414" y="1280" as="targetPoint" />
          </mxGeometry>
        </mxCell>
        <mxCell id="ZSZtkPEoFd3dV9tq5ufR-30" value="descuento = 18" style="rounded=1;whiteSpace=wrap;html=1;" vertex="1" parent="1">
          <mxGeometry x="354" y="1260" width="120" height="60" as="geometry" />
        </mxCell>
        <mxCell id="ZSZtkPEoFd3dV9tq5ufR-31" value="" style="endArrow=classic;html=1;rounded=0;exitX=0.5;exitY=1;exitDx=0;exitDy=0;" edge="1" parent="1" source="ZSZtkPEoFd3dV9tq5ufR-30">
          <mxGeometry width="50" height="50" relative="1" as="geometry">
            <mxPoint x="390" y="1250" as="sourcePoint" />
            <mxPoint x="414" y="1370" as="targetPoint" />
          </mxGeometry>
        </mxCell>
        <mxCell id="ZSZtkPEoFd3dV9tq5ufR-33" value="monto_compra &amp;gt;= 15000" style="rhombus;whiteSpace=wrap;html=1;" vertex="1" parent="1">
          <mxGeometry x="374" y="1370" width="80" height="80" as="geometry" />
        </mxCell>
        <mxCell id="ZSZtkPEoFd3dV9tq5ufR-34" value="si" style="endArrow=classic;html=1;rounded=0;exitX=0.5;exitY=1;exitDx=0;exitDy=0;" edge="1" parent="1" source="ZSZtkPEoFd3dV9tq5ufR-33" target="ZSZtkPEoFd3dV9tq5ufR-35">
          <mxGeometry width="50" height="50" relative="1" as="geometry">
            <mxPoint x="390" y="1470" as="sourcePoint" />
            <mxPoint x="414" y="1510" as="targetPoint" />
          </mxGeometry>
        </mxCell>
        <mxCell id="ZSZtkPEoFd3dV9tq5ufR-35" value="descuento 25" style="rounded=1;whiteSpace=wrap;html=1;" vertex="1" parent="1">
          <mxGeometry x="354" y="1500" width="120" height="60" as="geometry" />
        </mxCell>
        <mxCell id="ZSZtkPEoFd3dV9tq5ufR-36" value="" style="endArrow=classic;html=1;rounded=0;exitX=0.5;exitY=1;exitDx=0;exitDy=0;" edge="1" parent="1" source="ZSZtkPEoFd3dV9tq5ufR-35" target="ZSZtkPEoFd3dV9tq5ufR-37">
          <mxGeometry width="50" height="50" relative="1" as="geometry">
            <mxPoint x="390" y="1470" as="sourcePoint" />
            <mxPoint x="414" y="1630" as="targetPoint" />
          </mxGeometry>
        </mxCell>
        <mxCell id="ZSZtkPEoFd3dV9tq5ufR-37" value="calcular monto_final" style="rounded=1;whiteSpace=wrap;html=1;" vertex="1" parent="1">
          <mxGeometry x="354" y="1600" width="120" height="60" as="geometry" />
        </mxCell>
        <mxCell id="ZSZtkPEoFd3dV9tq5ufR-38" value="" style="endArrow=classic;html=1;rounded=0;exitX=0.442;exitY=1;exitDx=0;exitDy=0;exitPerimeter=0;" edge="1" parent="1" source="ZSZtkPEoFd3dV9tq5ufR-37" target="ZSZtkPEoFd3dV9tq5ufR-39">
          <mxGeometry width="50" height="50" relative="1" as="geometry">
            <mxPoint x="390" y="1660" as="sourcePoint" />
            <mxPoint x="407" y="1700" as="targetPoint" />
          </mxGeometry>
        </mxCell>
        <mxCell id="ZSZtkPEoFd3dV9tq5ufR-39" value="mostara el descuento y el monto final" style="shape=parallelogram;perimeter=parallelogramPerimeter;whiteSpace=wrap;html=1;fixedSize=1;" vertex="1" parent="1">
          <mxGeometry x="350" y="1690" width="120" height="60" as="geometry" />
        </mxCell>
        <mxCell id="ZSZtkPEoFd3dV9tq5ufR-40" value="" style="endArrow=classic;html=1;rounded=0;exitX=0.5;exitY=1;exitDx=0;exitDy=0;" edge="1" parent="1" source="ZSZtkPEoFd3dV9tq5ufR-39" target="ZSZtkPEoFd3dV9tq5ufR-41">
          <mxGeometry width="50" height="50" relative="1" as="geometry">
            <mxPoint x="390" y="1660" as="sourcePoint" />
            <mxPoint x="410" y="1800" as="targetPoint" />
          </mxGeometry>
        </mxCell>
        <mxCell id="ZSZtkPEoFd3dV9tq5ufR-41" value="fin" style="ellipse;whiteSpace=wrap;html=1;" vertex="1" parent="1">
          <mxGeometry x="350" y="1790" width="120" height="80" as="geometry" />
        </mxCell>
      </root>
    </mxGraphModel>
  </diagram>
</mxfile>
